<svg id="Layer_1" enable-background="new 0 0 509.825 509.825" height="512" viewBox="0 0 509.825 509.825" width="512" xmlns="http://www.w3.org/2000/svg"><g><path d="m479.825 286.803v-150.346l29.824-14.234-254.824-121.621-254.825 121.621 89.825 42.871v101.4l165 82.5 165-82.5v-101.4l30-14.318v136.028c-17.459 6.192-30 22.865-30 42.42 0 24.813 20.186 45 45 45s45-20.187 45-45c0-19.556-12.541-36.229-30-42.421zm-90-38.851-135 67.5-135-67.5v-68.54l135 64.432 135-64.432zm-135-37.35-185.176-88.379 185.175-88.379 185.176 88.379zm210 133.621c-8.272 0-15-6.729-15-15s6.728-15 15-15c8.271 0 15 6.729 15 15s-6.729 15-15 15z"/><path d="m404.825 389.223c-31.729 0-268.632 0-300 0-25.234 0-45 26.355-45 60s19.766 60 45 60h300c25.233 0 45-26.355 45-60s-19.767-60-45-60zm-315 60c0-18.314 8.884-30 15-30s15 11.686 15 30-8.884 30-15 30-15-11.687-15-30zm54.144 30c7.814-18.392 7.816-41.602 0-60h80.856v60zm110.856 0v-60h45v60zm150 0h-75v-60h75c6.116 0 15 11.686 15 30s-8.884 30-15 30z"/></g></svg>