<svg xmlns="http://www.w3.org/2000/svg" viewBox="240 149 230 20"><path d="M350.609 217.555c-33.347 0-60.388-27.035-60.388-60.388 0-26.68 17.303-49.316 41.297-57.301 3.018-.56 4.126 1.31 4.126 2.905 0 1.439-.056 6.197-.082 11.243-16.8-3.653-20.345 7.125-20.345 7.125-2.747 6.979-6.705 8.836-6.705 8.836-5.48 3.748.413 3.67.413 3.67 6.064-.425 9.257-6.223 9.257-6.223 5.386-9.231 14.127-6.562 17.573-5.02.543 3.903 2.107 6.568 3.834 8.076-13.413 1.526-27.513 6.705-27.513 29.844 0 6.592 2.359 11.979 6.222 16.208-.627 1.522-2.694 7.664.586 15.982 0 0 5.07 1.622 16.61-6.191 4.817 1.338 9.983 2.009 15.115 2.033 5.132-.024 10.302-.695 15.128-2.033 11.526 7.813 16.59 6.19 16.59 6.19 3.287-8.317 1.22-14.46.593-15.981 3.872-4.23 6.214-9.616 6.214-16.208 0-23.195-14.127-28.301-27.574-29.796 2.166-1.874 4.096-5.55 4.096-11.183 0-8.08-.07-14.583-.07-16.572 0-1.608 1.087-3.491 4.148-2.898 23.982 7.994 41.263 30.622 41.263 57.294 0 33.353-27.037 60.388-60.388 60.388" fill="#fff" fill-rule="evenodd"/><path d="M313.093 130.851c-.133-.3-.605-.39-1.035-.184-.439.197-.684.606-.542.907.13.308.602.394 1.04.188.438-.197.688-.61.537-.91M315.54 128.123c-.289-.267-.853-.143-1.234.279-.396.421-.469.985-.177 1.255.297.267.843.142 1.238-.279.396-.426.473-.985.172-1.255M317.92 124.645c-.37-.257-.976-.016-1.35.52-.37.538-.37 1.182.01 1.44.373.258.97.025 1.35-.507.368-.546.368-1.19-.01-1.453M321.182 121.285c-.33-.365-1.036-.267-1.552.231-.528.487-.675 1.178-.344 1.543.336.366 1.045.263 1.565-.23.524-.487.683-1.183.331-1.544M325.682 119.334c-.147-.473-.825-.687-1.509-.486-.683.207-1.13.76-.992 1.238.142.477.824.7 1.513.485.682-.206 1.13-.756.988-1.237M330.625 118.973c.017-.498-.563-.911-1.281-.92-.722-.017-1.307.387-1.315.877 0 .503.568.91 1.289.924.718.014 1.307-.387 1.307-.881M335.223 119.755c.086-.485-.413-.984-1.126-1.117-.7-.13-1.35.172-1.439.653-.087.498.42.997 1.121 1.126.714.124 1.353-.168 1.444-.662" fill="#fff"/></svg>