<svg version="1.2" baseProfile="tiny" xmlns="http://www.w3.org/2000/svg" viewBox="0 0 214 236.1"><path fill="none" stroke="#714141" stroke-width="2" stroke-miterlimit="10" d="M201.3 1.7V129L157 167.7l-33.3-28.6V1.7h-5.4l-11.1 11-5.5-5.6-44.3 44.3-44.3-38.7h-11V234h11V106.8L57.3 68l33.3 28.6V234h5.5l11-11 5.5 5.6 44.4-44.2 44.3 38.6h11V1.7h-11zM90.7 82.9L62.9 62.3l27.8-27.6v48.2zm33 117.9v-48l27.7 20.5-27.7 27.5zm77.6 5.7L165 176.3l36.3-30.7v60.9zM107.2 223V12.7M13 29.2l36.3 30.2L13 90.1V29.2z"/></svg>