<svg height="496pt" viewBox="0 0 496.00023 496" width="496pt" xmlns="http://www.w3.org/2000/svg"><path d="m152 415.988281h-80v-96c0-4.417969-3.582031-8-8-8h-43.441406l50.691406-108.617187c.496094-1.054688.75-2.214844.75-3.382813 0-52.9375 43.0625-96 96-96h40v-16h-40c-61.152344 0-111.015625 49.265625-111.984375 110.191407l-55.261719 118.425781c-1.160156 2.480469-.96875 5.375.503906 7.679687 1.460938 2.3125 4.007813 3.703125 6.742188 3.703125h48v96c0 4.414063 3.585938 8 8 8h80v64h16v-72c0-4.417969-3.582031-8-8-8zm0 0"/><path d="m256 199.988281h-16c0 22.054688 17.945312 40 40 40v-16c-13.230469 0-24-10.769531-24-24zm0 0"/><path d="m120 223.988281v16c22.054688 0 40-17.945312 40-40h-16c0 13.230469-10.769531 24-24 24zm0 0"/><path d="m376 447.988281c39.695312 0 72-32.304687 72-72 0-39.695312-32.304688-72-72-72s-72 32.304688-72 72c0 39.695313 32.304688 72 72 72zm0-128c30.878906 0 56 25.121094 56 56 0 30.878907-25.121094 56-56 56s-56-25.121093-56-56c0-30.878906 25.121094-56 56-56zm0 0"/><path d="m376 415.988281c22.054688 0 40-17.945312 40-40 0-22.054687-17.945312-40-40-40s-40 17.945313-40 40c0 22.054688 17.945312 40 40 40zm0-64c13.230469 0 24 10.769531 24 24s-10.769531 24-24 24-24-10.769531-24-24 10.769531-24 24-24zm0 0"/><path d="m488 343.988281h-13.160156c-1.832032-5.585937-4.191406-11.089843-7.0625-16.464843l9.878906-9.878907c3.128906-3.128906 3.128906-8.183593 0-11.3125l-32-32c-3.128906-3.128906-8.183594-3.128906-11.3125 0l-9.878906 9.878907c-5.367188-2.863282-10.871094-5.230469-16.464844-7.0625v-29.160157h16v-16h-16v-38.230469c0-13.074218 6.753906-25.5625 18.0625-33.402343 26.785156-18.550781 41.089844-50.289063 37.328125-82.824219-4.636719-40.144531-37.167969-72.519531-77.34375-76.984375-25.046875-2.789063-50.09375 5.175781-68.710937 21.847656-18.648438 16.691407-29.335938 40.59375-29.335938 65.59375 0 28.777344 14.121094 55.785157 37.761719 72.246094 11.414062 7.953125 18.238281 20.488281 18.238281 33.53125v38.222656h-16v16h16v29.144531c-5.710938 1.847657-11.246094 4.183594-16.550781 6.992188l-9.792969-9.792969c-3.128906-3.128906-8.183594-3.128906-11.3125 0l-32 32c-3.128906 3.128907-3.128906 8.183594 0 11.3125l9.792969 9.792969c-2.808594 5.300781-5.144531 10.832031-6.992188 16.550781h-53.144531v-190.640625c0-9.121094 6.785156-16.894531 15.128906-17.335937 4.496094-.273438 8.664063 1.320312 11.878906 4.367187.6875.65625 1.28125 1.386719 1.839844 2.128906-7.75 5.847657-12.847656 15.039063-12.847656 25.480469h16c0-8.824219 7.175781-16 16-16s16 7.175781 16 16-7.175781 16-16 16v16c17.648438 0 32 14.351563 32 32h16c0-18.082031-10.054688-33.839843-24.855469-42.023437 5.457031-5.746094 8.855469-13.457032 8.855469-21.976563 0-17.648437-14.351562-32-32-32-1.457031 0-2.839844.238281-4.238281.433594-1.5625-2.785156-3.394531-5.417969-5.738281-7.648437-6.421876-6.097657-14.816407-9.195313-23.726563-8.738282-16.992187.890625-30.296875 15.519532-30.296875 33.3125v198.640625c0 4.414063 3.585938 8 8 8h67.152344c3.648437 0 6.832031-2.472656 7.742187-6 2.160157-8.367187 5.53125-16.351562 10.035157-23.71875 1.925781-3.160156 1.4375-7.21875-1.167969-9.832031l-8.449219-8.449219 20.6875-20.6875 8.449219 8.445313c2.605469 2.617187 6.671875 3.105468 9.832031 1.171875 7.367188-4.507813 15.351562-7.882813 23.71875-10.035157 3.527344-.910156 6-4.09375 6-7.742187v-35.152344h32v35.152344c0 3.648437 2.472656 6.832031 6 7.742187 8.0625 2.082032 16.007812 5.488282 23.632812 10.136719 3.152344 1.921875 7.207032 1.433594 9.824219-1.175781l8.542969-8.542969 20.6875 20.6875-8.542969 8.542969c-2.617187 2.609375-3.097656 6.664062-1.175781 9.824219 4.648438 7.625 8.054688 15.570312 10.136719 23.632812.910156 3.527344 4.09375 6 7.742187 6h11.152344v32h-11.152344c-3.648437 0-6.832031 2.472657-7.742187 6-2.160157 8.367188-5.527344 16.34375-10.035157 23.726563-1.925781 3.152344-1.4375 7.210937 1.167969 9.824218l8.449219 8.449219-20.6875 20.6875-8.449219-8.449219c-2.605469-2.605468-6.671875-3.101562-9.824219-1.167968-7.375 4.503906-15.359374 7.882812-23.726562 10.035156-3.527344.910156-6 4.09375-6 7.742188v11.152343h-32v-11.152343c0-3.648438-2.472656-6.832032-6-7.742188-8.0625-2.082031-16.007812-5.488281-23.632812-10.136719-3.160157-1.929687-7.214844-1.441406-9.824219 1.175781l-8.542969 8.542969-20.6875-20.6875 8.542969-8.542969c2.617187-2.609374 3.097656-6.664062 1.175781-9.824218-4.648438-7.625-8.054688-15.570313-10.136719-23.632813-.910156-3.527343-4.09375-6-7.742187-6h-91.152344v-238.640625c0-17.792968-13.304688-32.421875-30.296875-33.3125-8.847656-.472656-17.304687 2.640625-23.726563 8.738282-2.34375 2.222656-4.175781 4.863281-5.738281 7.648437-1.398437-.195313-2.78125-.433594-4.238281-.433594-17.648438 0-32 14.351563-32 32 0 8.519531 3.398438 16.230469 8.855469 21.976563-14.800781 8.183594-24.855469 23.941406-24.855469 42.023437h16c0-17.648437 14.351562-32 32-32v-16c-8.824219 0-16-7.175781-16-16s7.175781-16 16-16 16 7.175781 16 16h16c0-10.441406-5.097656-19.632812-12.847656-25.480469.550781-.75 1.144531-1.472656 1.839844-2.128906 3.214843-3.046875 7.433593-4.632812 11.878906-4.367187 8.34375.441406 15.128906 8.214843 15.128906 17.335937v246.640625c0 4.414063 3.585938 8 8 8h93.160156c1.832032 5.582031 4.191406 11.085938 7.0625 16.464844l-9.878906 9.878906c-3.128906 3.128907-3.128906 8.183594 0 11.3125l32 32c3.128906 3.128907 8.183594 3.128907 11.3125 0l9.878906-9.878906c5.367188 2.863281 10.875 5.230469 16.464844 7.0625v13.160156c0 4.414063 3.585938 8 8 8h48c4.417969 0 8-3.585937 8-8v-13.144531c5.710938-1.847656 11.25-4.183594 16.550781-6.992188l9.792969 9.792969c3.128906 3.128907 8.183594 3.128907 11.3125 0l32-32c3.128906-3.128906 3.128906-8.183593 0-11.3125l-9.792969-9.792969c2.808594-5.304687 5.144531-10.839843 6.992188-16.550781h13.144531c4.417969 0 8-3.585937 8-8v-48c0-4.417969-3.582031-8-8-8zm-153.097656-196.886719c-19.351563-13.472656-30.902344-35.578124-30.902344-59.113281 0-20.457031 8.753906-40.015625 24-53.664062 15.464844-13.839844 35.449219-20.152344 56.28125-17.871094 32.832031 3.65625 59.421875 30.109375 63.222656 62.917969 3.082032 26.65625-8.625 52.648437-30.542968 67.832031-15.632813 10.824219-24.960938 28.234375-24.960938 46.554687v6.230469h-32v-6.222656c0-18.273437-9.382812-35.722656-25.097656-46.664063zm25.097656 84.886719v-16h32v16zm0 0"/><path d="m368 118.851562v25.136719h16v-25.136719c2.902344-.75 5.632812-1.902343 8.152344-3.398437l18.191406 18.191406 11.3125-11.3125-18.191406-18.191406c1.488281-2.527344 2.640625-5.25 3.398437-8.152344h25.136719v-16h-25.136719c-.75-2.902343-1.902343-5.632812-3.398437-8.152343l18.191406-18.191407-11.3125-11.3125-18.191406 18.191407c-2.519532-1.496094-5.25-2.648438-8.152344-3.398438v-25.136719h-16v25.136719c-2.902344.75-5.632812 1.902344-8.152344 3.398438l-18.191406-18.191407-11.3125 11.3125 18.191406 18.191407c-1.488281 2.527343-2.640625 5.25-3.398437 8.152343h-25.136719v16h25.136719c.75 2.902344 1.902343 5.632813 3.398437 8.152344l-18.191406 18.191406 11.3125 11.3125 18.191406-18.191406c2.519532 1.496094 5.25 2.648437 8.152344 3.398437zm8-46.863281c8.824219 0 16 7.175781 16 16s-7.175781 16-16 16-16-7.175781-16-16 7.175781-16 16-16zm0 0"/></svg>